# xmcd
#
# Track frame offsets: 
#        150
#        11542
#        22147
#        35556
#        45232
#        55882
#        65517
#        77256
#        88056
#        98973
#        109438
#        121930
#        132238
#        141739
#        153696
#        163221
#        176467
#        189249
#
# Disc length: 2662 seconds
#
# Revision: 0
# Processed by: cddbd v1.5.2PL0 Copyright (c) Steve Scherf et al.
# Submitted via: ExactAudioCopy v1.3
#
DISCID=f70a6412
DTITLE=Stones River Ranch Boys - Stones River Ranch Boys_Fiddlin' Arou
DTITLE=nd 18 Songs
DYEAR=2010
DGENRE=Country
TTITLE0=Fiddlin' Around
TTITLE1=Good Time Fiddlin'
TTITLE2=Fiddler's Swing
TTITLE3=Twin Fiddle Waltz
TTITLE4=Alabam
TTITLE5=Arkansas Traveler
TTITLE6=Blues Stay Away From Me
TTITLE7=Cowboy Dance Medley
TTITLE8=Houston Rag
TTITLE9=Bayou Medley
TTITLE10=Danny Boy
TTITLE11=Fiddlin' By Riverside
TTITLE12=Billy In The Low Ground
TTITLE13=Westphalia Waltz
TTITLE14=Dixieland Rag
TTITLE15=Black Mountain Rag
TTITLE16=Union Station Train Whistle
TTITLE17=Daisies On The Hill
EXTD=
EXTT0=
EXTT1=
EXTT2=
EXTT3=
EXTT4=
EXTT5=
EXTT6=
EXTT7=
EXTT8=
EXTT9=
EXTT10=
EXTT11=
EXTT12=
EXTT13=
EXTT14=
EXTT15=
EXTT16=
EXTT17=
PLAYORDER=
